<mxfile host="app.diagrams.net" modified="2021-09-07T10:07:46.966Z" agent="5.0 (Windows NT 10.0; Win64; x64) AppleWebKit/537.36 (KHTML, like Gecko) Chrome/93.0.4577.63 Safari/537.36" etag="8JmPq5TYMr6frZGVXI3S" version="15.1.0" type="github">
  <diagram id="eY4go0LkcZO66568y_7N" name="Page-1">
    <mxGraphModel dx="1279" dy="585" grid="1" gridSize="10" guides="1" tooltips="1" connect="1" arrows="1" fold="1" page="1" pageScale="1" pageWidth="827" pageHeight="1169" math="0" shadow="0">
      <root>
        <mxCell id="0" />
        <mxCell id="1" parent="0" />
        <mxCell id="M3obMAaM5eYTaD5ACtc3-3" value="" style="edgeStyle=orthogonalEdgeStyle;rounded=0;orthogonalLoop=1;jettySize=auto;html=1;" edge="1" parent="1" source="PxJ90tIYc75GkE3W4qHD-28" target="PxJ90tIYc75GkE3W4qHD-35">
          <mxGeometry relative="1" as="geometry" />
        </mxCell>
        <mxCell id="PxJ90tIYc75GkE3W4qHD-28" value="" style="rounded=1;whiteSpace=wrap;html=1;" parent="1" vertex="1">
          <mxGeometry x="400" y="210" width="220" height="320" as="geometry" />
        </mxCell>
        <mxCell id="M3obMAaM5eYTaD5ACtc3-4" value="" style="edgeStyle=orthogonalEdgeStyle;rounded=0;orthogonalLoop=1;jettySize=auto;html=1;" edge="1" parent="1" source="PxJ90tIYc75GkE3W4qHD-20">
          <mxGeometry relative="1" as="geometry">
            <mxPoint x="400" y="370" as="targetPoint" />
          </mxGeometry>
        </mxCell>
        <mxCell id="PxJ90tIYc75GkE3W4qHD-20" value="" style="rounded=1;whiteSpace=wrap;html=1;" parent="1" vertex="1">
          <mxGeometry x="160" y="210" width="220" height="320" as="geometry" />
        </mxCell>
        <mxCell id="PxJ90tIYc75GkE3W4qHD-4" value="" style="edgeStyle=orthogonalEdgeStyle;rounded=0;orthogonalLoop=1;jettySize=auto;html=1;" parent="1" source="PxJ90tIYc75GkE3W4qHD-2" target="PxJ90tIYc75GkE3W4qHD-3" edge="1">
          <mxGeometry relative="1" as="geometry" />
        </mxCell>
        <mxCell id="PxJ90tIYc75GkE3W4qHD-2" value="&lt;font face=&quot;Times New Roman&quot; style=&quot;font-size: 18px&quot;&gt;Convolutional Layer&lt;/font&gt;" style="rounded=1;whiteSpace=wrap;html=1;" parent="1" vertex="1">
          <mxGeometry x="175" y="230" width="190" height="40" as="geometry" />
        </mxCell>
        <mxCell id="PxJ90tIYc75GkE3W4qHD-6" value="" style="edgeStyle=orthogonalEdgeStyle;rounded=0;orthogonalLoop=1;jettySize=auto;html=1;" parent="1" source="PxJ90tIYc75GkE3W4qHD-3" target="PxJ90tIYc75GkE3W4qHD-5" edge="1">
          <mxGeometry relative="1" as="geometry" />
        </mxCell>
        <mxCell id="PxJ90tIYc75GkE3W4qHD-3" value="&lt;font style=&quot;font-size: 18px&quot; face=&quot;Times New Roman&quot;&gt;Activation&lt;/font&gt;" style="whiteSpace=wrap;html=1;rounded=1;" parent="1" vertex="1">
          <mxGeometry x="210" y="290" width="120" height="40" as="geometry" />
        </mxCell>
        <mxCell id="PxJ90tIYc75GkE3W4qHD-10" value="" style="edgeStyle=orthogonalEdgeStyle;rounded=0;orthogonalLoop=1;jettySize=auto;html=1;" parent="1" source="PxJ90tIYc75GkE3W4qHD-5" target="PxJ90tIYc75GkE3W4qHD-9" edge="1">
          <mxGeometry relative="1" as="geometry" />
        </mxCell>
        <mxCell id="PxJ90tIYc75GkE3W4qHD-5" value="&lt;font style=&quot;font-size: 18px&quot; face=&quot;Times New Roman&quot;&gt;Batch Normalization&lt;/font&gt;" style="whiteSpace=wrap;html=1;rounded=1;" parent="1" vertex="1">
          <mxGeometry x="192.5" y="350" width="155" height="40" as="geometry" />
        </mxCell>
        <mxCell id="PxJ90tIYc75GkE3W4qHD-15" value="" style="edgeStyle=orthogonalEdgeStyle;rounded=0;orthogonalLoop=1;jettySize=auto;html=1;" parent="1" source="PxJ90tIYc75GkE3W4qHD-9" target="PxJ90tIYc75GkE3W4qHD-14" edge="1">
          <mxGeometry relative="1" as="geometry" />
        </mxCell>
        <mxCell id="PxJ90tIYc75GkE3W4qHD-9" value="&lt;font style=&quot;font-size: 18px&quot; face=&quot;Times New Roman&quot;&gt;MaxPooling&lt;/font&gt;" style="whiteSpace=wrap;html=1;rounded=1;" parent="1" vertex="1">
          <mxGeometry x="210" y="410" width="120" height="40" as="geometry" />
        </mxCell>
        <mxCell id="PxJ90tIYc75GkE3W4qHD-14" value="&lt;font face=&quot;Times New Roman&quot; style=&quot;font-size: 18px&quot;&gt;DroupOut&lt;/font&gt;" style="whiteSpace=wrap;html=1;rounded=1;" parent="1" vertex="1">
          <mxGeometry x="195" y="470" width="150" height="40" as="geometry" />
        </mxCell>
        <mxCell id="PxJ90tIYc75GkE3W4qHD-23" value="" style="edgeStyle=orthogonalEdgeStyle;rounded=0;orthogonalLoop=1;jettySize=auto;html=1;" parent="1" source="PxJ90tIYc75GkE3W4qHD-16" target="PxJ90tIYc75GkE3W4qHD-22" edge="1">
          <mxGeometry relative="1" as="geometry" />
        </mxCell>
        <mxCell id="PxJ90tIYc75GkE3W4qHD-16" value="&lt;font style=&quot;font-size: 18px&quot; face=&quot;Times New Roman&quot;&gt;TimeDistributed(Flatten)&lt;/font&gt;" style="whiteSpace=wrap;html=1;rounded=1;" parent="1" vertex="1">
          <mxGeometry x="410.25" y="467.5" width="199" height="45" as="geometry" />
        </mxCell>
        <mxCell id="PxJ90tIYc75GkE3W4qHD-21" value="&lt;font face=&quot;Times New Roman&quot; style=&quot;font-size: 18px&quot;&gt;Convolutional Neural Network * 2&lt;/font&gt;" style="text;whiteSpace=wrap;html=1;" parent="1" vertex="1">
          <mxGeometry x="145.25" y="530" width="265" height="30" as="geometry" />
        </mxCell>
        <mxCell id="PxJ90tIYc75GkE3W4qHD-25" value="" style="edgeStyle=orthogonalEdgeStyle;rounded=0;orthogonalLoop=1;jettySize=auto;html=1;" parent="1" source="PxJ90tIYc75GkE3W4qHD-22" target="PxJ90tIYc75GkE3W4qHD-24" edge="1">
          <mxGeometry relative="1" as="geometry" />
        </mxCell>
        <mxCell id="PxJ90tIYc75GkE3W4qHD-22" value="&lt;font style=&quot;font-size: 18px&quot; face=&quot;Times New Roman&quot;&gt;Bidirectional(LSTM)&lt;/font&gt;" style="whiteSpace=wrap;html=1;rounded=1;" parent="1" vertex="1">
          <mxGeometry x="420.75" y="380" width="178.5" height="50" as="geometry" />
        </mxCell>
        <mxCell id="PxJ90tIYc75GkE3W4qHD-27" value="" style="edgeStyle=orthogonalEdgeStyle;rounded=0;orthogonalLoop=1;jettySize=auto;html=1;" parent="1" source="PxJ90tIYc75GkE3W4qHD-24" target="PxJ90tIYc75GkE3W4qHD-26" edge="1">
          <mxGeometry relative="1" as="geometry" />
        </mxCell>
        <mxCell id="PxJ90tIYc75GkE3W4qHD-24" value="&lt;font style=&quot;font-size: 18px&quot; face=&quot;Times New Roman&quot;&gt;Flatten&lt;/font&gt;" style="whiteSpace=wrap;html=1;rounded=1;" parent="1" vertex="1">
          <mxGeometry x="450" y="300" width="120" height="40" as="geometry" />
        </mxCell>
        <mxCell id="PxJ90tIYc75GkE3W4qHD-26" value="&lt;font style=&quot;font-size: 18px&quot; face=&quot;Times New Roman&quot;&gt;Dense&lt;/font&gt;" style="whiteSpace=wrap;html=1;rounded=1;" parent="1" vertex="1">
          <mxGeometry x="450" y="230" width="120" height="40" as="geometry" />
        </mxCell>
        <mxCell id="PxJ90tIYc75GkE3W4qHD-29" value="&lt;font face=&quot;Times New Roman&quot; style=&quot;font-size: 18px&quot;&gt;Bi-LSTM&lt;/font&gt;" style="text;whiteSpace=wrap;html=1;align=center;" parent="1" vertex="1">
          <mxGeometry x="451.25" y="530" width="117" height="30" as="geometry" />
        </mxCell>
        <mxCell id="PxJ90tIYc75GkE3W4qHD-31" style="edgeStyle=orthogonalEdgeStyle;rounded=0;orthogonalLoop=1;jettySize=auto;html=1;entryX=0;entryY=0.5;entryDx=0;entryDy=0;" parent="1" source="PxJ90tIYc75GkE3W4qHD-30" target="PxJ90tIYc75GkE3W4qHD-20" edge="1">
          <mxGeometry relative="1" as="geometry" />
        </mxCell>
        <mxCell id="PxJ90tIYc75GkE3W4qHD-30" value="&lt;font style=&quot;font-size: 18px&quot; face=&quot;Times New Roman&quot;&gt;Input&lt;br&gt;Signal&lt;/font&gt;" style="rounded=1;whiteSpace=wrap;html=1;" parent="1" vertex="1">
          <mxGeometry x="80" y="345" width="62" height="50" as="geometry" />
        </mxCell>
        <mxCell id="PxJ90tIYc75GkE3W4qHD-35" value="&lt;font style=&quot;font-size: 18px&quot; face=&quot;Times New Roman&quot;&gt;Output&lt;br&gt;Class&lt;/font&gt;" style="whiteSpace=wrap;html=1;rounded=1;" parent="1" vertex="1">
          <mxGeometry x="650" y="345" width="70" height="50" as="geometry" />
        </mxCell>
      </root>
    </mxGraphModel>
  </diagram>
</mxfile>
